<?xml version="1.0" standalone="no"?>
<!DOCTYPE svg PUBLIC "-//W3C//DTD SVG 20010904//EN"
 "http://www.w3.org/TR/2001/REC-SVG-20010904/DTD/svg10.dtd">
<svg version="1.0" xmlns="http://www.w3.org/2000/svg"
 width="512.000000pt" height="512.000000pt" viewBox="0 0 512.000000 512.000000"
 preserveAspectRatio="xMidYMid meet">
<metadata>
Created by potrace 1.11, written by Peter Selinger 2001-2013
</metadata>
<g transform="translate(0.000000,512.000000) scale(0.100000,-0.100000)"
fill="#000000" stroke="none">
<path d="M4 4153 c3 -10 28 -108 56 -218 28 -110 81 -314 116 -454 36 -140 67
-261 69 -270 5 -23 143 -559 155 -601 5 -19 41 -159 79 -310 39 -151 86 -336
105 -410 19 -74 65 -252 101 -395 37 -143 82 -320 101 -393 19 -73 34 -134 34
-135 0 -1 174 -2 387 -2 l387 0 13 45 c7 25 15 54 18 65 2 11 23 92 45 180 23
88 44 169 46 179 2 10 8 33 13 50 6 17 38 139 71 271 34 132 84 326 111 430
117 456 150 592 189 785 50 246 45 216 60 323 7 48 15 85 17 83 2 -2 5 -21 8
-42 2 -22 13 -87 24 -144 12 -58 23 -114 25 -125 18 -95 82 -379 102 -455 14
-52 27 -102 29 -110 1 -8 8 -35 15 -60 7 -25 13 -52 15 -60 2 -8 13 -51 25
-95 12 -44 23 -87 25 -95 1 -8 20 -78 40 -155 20 -77 38 -147 40 -155 2 -8 31
-121 65 -250 33 -129 63 -242 65 -250 23 -97 97 -380 104 -395 8 -20 18 -20
394 -20 l385 0 21 80 c11 44 45 176 76 294 30 118 57 224 60 235 2 12 45 179
94 371 168 656 212 830 282 1105 39 151 91 354 116 450 24 96 46 182 48 191 2
9 22 88 45 175 23 88 43 166 45 174 2 8 10 41 18 73 l15 57 -336 -2 -335 -3
-8 -25 c-4 -14 -23 -97 -44 -185 -20 -88 -47 -205 -60 -260 -13 -55 -49 -210
-80 -345 -31 -135 -65 -281 -77 -325 -11 -44 -22 -91 -24 -105 -3 -14 -16 -72
-30 -130 -56 -231 -84 -350 -88 -372 -2 -13 -11 -52 -20 -88 -21 -87 -64 -295
-71 -344 -3 -21 -7 -48 -10 -60 -3 -12 -7 -33 -10 -48 -3 -16 -7 -38 -10 -50
-5 -28 -14 -86 -21 -153 -8 -68 -20 -76 -28 -18 -8 58 -9 66 -35 218 -29 167
-29 164 -61 320 -15 77 -37 174 -48 215 -11 41 -41 156 -67 255 -45 175 -60
232 -124 475 -16 63 -57 219 -90 345 -66 255 -109 419 -141 540 -12 44 -24 91
-26 105 -3 14 -9 28 -13 33 -4 4 -151 6 -326 5 l-318 -3 -18 -65 c-10 -36 -20
-74 -23 -85 -2 -11 -23 -92 -46 -180 -23 -88 -44 -166 -46 -175 -2 -8 -11 -42
-20 -75 -9 -33 -18 -67 -20 -75 -1 -8 -17 -67 -33 -130 -32 -123 -77 -297
-160 -615 -71 -270 -89 -338 -111 -420 -22 -78 -80 -369 -104 -515 -9 -52 -18
-106 -21 -120 -2 -13 -6 -39 -7 -58 -4 -54 -15 -46 -23 16 -4 31 -8 65 -10 74
-2 9 -6 34 -9 55 -3 21 -8 49 -11 63 -3 14 -10 52 -16 85 -13 79 -16 90 -29
155 -6 30 -13 66 -16 80 -2 14 -11 57 -20 95 -8 39 -16 79 -19 90 -6 30 -32
144 -71 305 -19 79 -36 151 -38 160 -2 8 -6 26 -9 40 -8 31 -78 329 -82 350
-9 45 -67 291 -76 324 -6 22 -12 46 -14 55 -4 18 -41 177 -49 206 -1 6 -6 26
-10 45 -14 62 -57 244 -67 283 l-10 37 -335 0 c-315 0 -335 -1 -330 -17z"/>
<path d="M4614 1684 c-75 -15 -113 -34 -165 -81 -87 -79 -121 -213 -95 -378
32 -201 242 -311 496 -260 183 36 288 214 258 436 -19 144 -120 255 -258 284
-59 13 -172 12 -236 -1z"/>
</g>
</svg>
